<svg xmlns="http://www.w3.org/2000/svg" viewBox="0 0 34 40" x="0px" y="0px"><path d="M34,33V3c0-.8-.32-1.56-.88-2.12-.56-.56-1.33-.88-2.12-.88H7.83c-.8,0-1.56,.32-2.12,.88L.88,5.71c-.56,.56-.88,1.32-.88,2.12v29.17c0,1.66,1.34,3,3,3H13c3.58,0,12.18-.52,17.02-2.58,2.48-1.05,3.98-2.59,3.98-4.42h0ZM9,2v4c0,1.66-1.34,3-3,3H2v28c0,.55,.45,1,1,1H13c.26,0,.54,0,.85,0,5.25-1.92,8.02-4.43,9.23-7.37,.12-.28,.36-.5,.65-.58,.29-.09,.61-.03,.86,.15,2.23,1.6,4.68,2.33,7.42,1.97V3c0-.27-.11-.52-.29-.71-.19-.19-.44-.29-.71-.29H9ZM31.42,34.22c-2.54,.17-4.86-.46-7.01-1.76-1.03,1.91-2.69,3.68-5.22,5.22,3.46-.33,7.36-.96,10.05-2.1,.88-.37,1.62-.8,2.14-1.3l.05-.05h0Zm-16.42-3.22c0-.55-.45-1-1-1H5c-.55,0-1,.45-1,1v4c0,.55,.45,1,1,1H14c.55,0,1-.45,1-1v-4h0Zm-2,1v2H6v-2h7Zm6.63-20.56l-7,12.12c-.28,.48-.11,1.09,.37,1.37,.48,.28,1.09,.11,1.37-.37l7-12.12c.28-.48,.11-1.09-.37-1.37-.48-.28-1.09-.11-1.37,.37h0Zm-9.26,1.78l-5,4c-.24,.19-.38,.48-.38,.78s.14,.59,.38,.78l5,4c.43,.35,1.06,.28,1.4-.16,.35-.43,.28-1.06-.16-1.4l-4.02-3.22,4.02-3.22c.43-.34,.5-.97,.16-1.4-.34-.43-.97-.5-1.4-.16h0Zm12,1.56l4.02,3.22-4.02,3.22c-.43,.34-.5,.97-.16,1.4,.34,.43,.97,.5,1.4,.16l5-4c.24-.19,.38-.48,.38-.78s-.14-.59-.38-.78l-5-4c-.43-.35-1.06-.28-1.4,.16-.35,.43-.28,1.06,.16,1.4h0ZM7,2.41L2.41,7h3.59c.55,0,1-.45,1-1V2.41h0Z" fill-rule="evenodd"></path></svg>